<svg width="292" height="77" viewBox="0 0 292 77" fill="none" xmlns="http://www.w3.org/2000/svg">
<g clip-path="url(#clip0_446_55)">
<path d="M12.0682 62H1.52273L17.5909 15.4545H30.2727L46.3182 62H35.7727L24.1136 26.0909H23.75L12.0682 62ZM11.4091 43.7045H36.3182V51.3864H11.4091V43.7045ZM94.6411 31.75H84.6866C84.5048 30.4621 84.1336 29.3182 83.573 28.3182C83.0124 27.303 82.2927 26.4394 81.4139 25.7273C80.5351 25.0151 79.5199 24.4697 78.3684 24.0909C77.232 23.7121 75.9972 23.5227 74.6639 23.5227C72.2548 23.5227 70.1563 24.1212 68.3684 25.3182C66.5805 26.5 65.1942 28.2273 64.2093 30.5C63.2245 32.7576 62.732 35.5 62.732 38.7273C62.732 42.0455 63.2245 44.8333 64.2093 47.0909C65.2093 49.3485 66.6033 51.053 68.3911 52.2045C70.179 53.3561 72.2472 53.9318 74.5957 53.9318C75.9139 53.9318 77.1336 53.7576 78.2548 53.4091C79.3911 53.0606 80.3987 52.553 81.2775 51.8864C82.1563 51.2045 82.8836 50.3788 83.4593 49.4091C84.0502 48.4394 84.4593 47.3333 84.6866 46.0909L94.6411 46.1364C94.3836 48.2727 93.7396 50.3333 92.7093 52.3182C91.6942 54.2879 90.323 56.053 88.5957 57.6136C86.8836 59.1591 84.8381 60.3864 82.4593 61.2955C80.0957 62.1894 77.4214 62.6364 74.4366 62.6364C70.2851 62.6364 66.573 61.697 63.3002 59.8182C60.0427 57.9394 57.4669 55.2197 55.573 51.6591C53.6942 48.0985 52.7548 43.7879 52.7548 38.7273C52.7548 33.6515 53.7093 29.3333 55.6184 25.7727C57.5275 22.2121 60.1184 19.5 63.3911 17.6364C66.6639 15.7576 70.3457 14.8182 74.4366 14.8182C77.1336 14.8182 79.6336 15.197 81.9366 15.9545C84.2548 16.7121 86.3078 17.8182 88.0957 19.2727C89.8836 20.7121 91.3381 22.4773 92.4593 24.5682C93.5957 26.6591 94.323 29.053 94.6411 31.75ZM112.686 62H102.14L118.208 15.4545H130.89L146.936 62H136.39L124.731 26.0909H124.368L112.686 62ZM112.027 43.7045H136.936V51.3864H112.027V43.7045ZM172.878 62H156.378V15.4545H173.014C177.696 15.4545 181.726 16.3864 185.105 18.25C188.484 20.0985 191.083 22.7576 192.901 26.2273C194.734 29.697 195.651 33.8485 195.651 38.6818C195.651 43.5303 194.734 47.697 192.901 51.1818C191.083 54.6667 188.469 57.3409 185.06 59.2045C181.666 61.0682 177.605 62 172.878 62ZM166.219 53.5682H172.469C175.378 53.5682 177.825 53.053 179.81 52.0227C181.81 50.9773 183.31 49.3636 184.31 47.1818C185.325 44.9848 185.833 42.1515 185.833 38.6818C185.833 35.2424 185.325 32.4318 184.31 30.25C183.31 28.0682 181.817 26.4621 179.833 25.4318C177.848 24.4015 175.401 23.8864 172.492 23.8864H166.219V53.5682ZM259.035 15.4545L268.422 31.3182H268.785L278.217 15.4545H289.331L275.126 38.7273L289.649 62H278.331L268.785 46.1136H268.422L258.876 62H247.603L262.172 38.7273L247.876 15.4545H259.035Z" fill="white"/>
<path d="M206 21.08C206 17.9983 208.498 15.5 211.58 15.5H239V26.66H211.58C208.498 26.66 206 24.1617 206 21.08V21.08Z" fill="#DF1E28"/>
<path d="M206 38.7502C206 35.6684 208.498 33.1702 211.58 33.1702H239V44.3302H211.58C208.498 44.3302 206 41.8319 206 38.7502V38.7502Z" fill="#1F5EE4"/>
<path d="M206 56.4201C206 53.3383 208.498 50.8401 211.58 50.8401H239V62.0001H211.58C208.498 62.0001 206 59.5018 206 56.4201V56.4201Z" fill="#FEC608"/>
</g>
<defs>
<clipPath id="clip0_446_55">
<rect width="292" height="77" fill="white"/>
</clipPath>
</defs>
</svg>
